<svg id="Layer_1" xmlns="http://www.w3.org/2000/svg" viewBox="0 0 16.8 20"><style>.st0{fill:#53BAD3;}</style><path class="st0" d="M9.9 16.1s-.1 0 0 0l-5.2-3c-.1 0-.1-.1-.1-.2V7.2c0-.1.1-.2.1-.2l5-2.9h.2L15.1 7h.1c.1 0 .1.1.1.2V13c0 .1-.1.1-.1.2L10 16.1h-.1zm.2-5.9v5.4l4.7-2.7V7.5l-4.7 2.7zm-5 2.7l4.7 2.7v-5.4l-2-1.1v1.8l-.1-.2h-.4l-.5-.5-.3.1V8.4L5 7.4v5.5zm2.8-4.2l2 1.2 4.7-2.7-2-1.2-4.7 2.7zM5.2 7.2l1.7 1 4.7-2.7-1.7-1-4.7 2.7z"/><path class="st0" d="M9.9 20c-2.5 0-5-1-7-2.9C-1 13.3-1 7 2.9 3.2 6.3-.2 11.6-.7 15.5 2l-.5.8C11.4.3 6.7.8 3.6 3.8.1 7.3.1 13 3.6 16.4s9.2 3.5 12.6 0l.7.6c-2 2-4.5 3-7 3z"/><path class="st0" d="M13.3 3.7L15.5.1l1.2 3.1z"/><path class="st0" d="M13.3 3.8c-.1 0-.1-.1 0 0l-.1-.1L15.4 0h.2l1.2 3.2v.1h-.1l-3.4.5zM15.4.2l-2 3.4 3.2-.4-1.2-3z"/></svg>