<?xml version="1.0" encoding="utf-8"?>
<svg version="1.1" id="rc_widget__icon"
	 xmlns="http://www.w3.org/2000/svg" xmlns:xlink="http://www.w3.org/1999/xlink" x="0px" y="0px"
	 viewBox="-306.4 133.148 218.9 259.926" style="enable-background:new -306.4 133.148 218.9 259.926;" xml:space="preserve">
<style type="text/css">
	.st0{fill:#53BAD3;}
</style>
<path class="st0" d="M-110.7,223.974l-65.7-37.9c-0.4-0.2-0.8-0.3-1.2-0.3c-0.4,0-0.8,0.1-1.2,0.3l-65.4,37.8
	c-0.1,0.1-0.2,0.1-0.2,0.1h-0.1l-0.4,0.1c-0.7,0.5-1.4,1.3-1.4,2.1v76.1c0,0.8,0.6,1.7,1.4,2.1l66.1,38.1c0.4,0.2,0.8,0.3,1.2,0.3
	c0.4,0,1.2-0.1,1.6-0.3l66.2-38.1c0.8-0.4,1.9-1.3,1.9-2.1v-76.1c0-0.9-1.2-1.6-1.9-2.1L-110.7,223.974z M-177.6,190.974l21.5,12.4
	l-60.8,35.1l-21.5-12.4L-177.6,190.974z M-178.7,336.274l-61.2-35.3v-70.9l19.2,12.7v24.6l3.4-1.4l5.9,6h5l1.9,2.8v-23.8l25.8,14.5
	C-178.7,265.474-178.7,336.274-178.7,336.274z M-177.6,261.274l-26.2-15.2l60.8-35.1l26.2,15.2L-177.6,261.274z M-114.3,300.874
	l-61.2,35.3v-70.8l61.2-35.3V300.874z"/>
<path class="st0" d="M-96,347.074c-45.3,45.3-119.1,45.3-164.4,0s-45.3-119.1,0-164.4c36.6-36.6,92.1-44.2,136.7-20.4l-11.2,18.4
	c-0.2,0.3-0.2,0.7,0,1c0.2,0.2,0.5,0.4,0.8,0.4h0.1l44.8-5.8c0.3,0,0.6-0.2,0.7-0.4c0.2-0.2,0.2-0.5,0.1-0.8l-16.2-41.3
	c-0.1-0.3-0.4-0.6-0.8-0.6c-0.3-0.1-0.7,0.1-0.9,0.4l-11.2,18.4c-49.3-26.6-110.9-18.2-151.4,22.3c-50,50-50,131.3,0,181.3
	c25,25,57.8,37.5,90.6,37.5c32.9,0,65.7-12.5,90.8-37.6L-96,347.074z"/>
</svg>
