<?xml version="1.0" encoding="utf-8"?>
<svg version="1.1" id="rc_widget__icon__grey"
	 xmlns="http://www.w3.org/2000/svg" xmlns:xlink="http://www.w3.org/1999/xlink" x="0px" y="0px"
	 viewBox="-164.4 82.074 218.9 259.926" style="enable-background:new -164.4 82.074 218.9 259.926;" xml:space="preserve">
<style type="text/css">
	.st0{fill:#676767;}
</style>
<path class="st0" d="M31.3,172.9L-34.4,135c-0.4-0.2-0.8-0.3-1.2-0.3c-0.4,0-0.8,0.1-1.2,0.3l-65.4,37.8c-0.1,0.1-0.2,0.1-0.2,0.1
	h-0.1l-0.4,0.1c-0.7,0.5-1.4,1.3-1.4,2.1v76.1c0,0.8,0.6,1.7,1.4,2.1l66.1,38.1c0.4,0.2,0.8,0.3,1.2,0.3c0.4,0,1.2-0.1,1.6-0.3
	l66.2-38.1c0.8-0.4,1.9-1.3,1.9-2.1v-76.1c0-0.9-1.2-1.6-1.9-2.1L31.3,172.9z M-35.6,139.9l21.5,12.4l-60.8,35.1L-96.4,175
	L-35.6,139.9z M-36.7,285.2l-61.2-35.3V179l19.2,12.7v24.6l3.4-1.4l5.9,6h5l1.9,2.8v-23.8l25.8,14.5V285.2z M-35.6,210.2L-61.8,195
	L-1,159.9l26.2,15.2L-35.6,210.2z M27.7,249.8l-61.2,35.3v-70.8L27.7,179V249.8z"/>
<path class="st0" d="M46,296c-45.3,45.3-119.1,45.3-164.4,0s-45.3-119.1,0-164.4C-81.8,95-26.3,87.4,18.3,111.2L7.1,129.6
	c-0.2,0.3-0.2,0.7,0,1c0.2,0.2,0.5,0.4,0.8,0.4H8l44.8-5.8c0.3,0,0.6-0.2,0.7-0.4c0.2-0.2,0.2-0.5,0.1-0.8L37.4,82.7
	c-0.1-0.3-0.4-0.6-0.8-0.6c-0.3-0.1-0.7,0.1-0.9,0.4l-11.2,18.4c-49.3-26.6-110.9-18.2-151.4,22.3c-50,50-50,131.3,0,181.3
	c25,25,57.8,37.5,90.6,37.5c32.9,0,65.7-12.5,90.8-37.6L46,296z"/>
</svg>
