<?xml version="1.0" encoding="utf-8"?>
<svg version="1.1" id="rc_widget__icon__white"
	 xmlns="http://www.w3.org/2000/svg" xmlns:xlink="http://www.w3.org/1999/xlink" x="0px" y="0px"
	 viewBox="-164.4 82.1 218.9 259.9" style="enable-background:new -164.4 82.1 218.9 259.9;" xml:space="preserve">
<style type="text/css">
	.st0{fill:#FFFFFF;}
</style>
<path class="st0" d="M31.3,172.9L-34.4,135c-0.8-0.4-1.6-0.4-2.4,0l-65.4,37.8c-0.1,0.1-0.1,0.1-0.2,0.1h-0.1l-0.4,0.1
	c-0.8,0.5-1.3,1.2-1.4,2.1v76.1c0.1,0.9,0.6,1.7,1.4,2.1l66.1,38.1c0.4,0.2,0.8,0.3,1.2,0.3c0.5,0,1.1-0.1,1.6-0.3l66.2-38.1
	c0.8-0.4,1.9-1.3,1.9-2.1v-76.1c0-0.9-1.2-1.6-1.9-2.1L31.3,172.9z M-35.6,139.9l21.5,12.4l-60.8,35.1L-96.4,175L-35.6,139.9z
	 M-36.7,285.2l-61.2-35.3V179l19.2,12.7v24.6l3.4-1.4l5.9,6h5l1.9,2.8v-23.8l25.8,14.5V285.2z M-35.6,210.2L-61.8,195L-1,159.9
	l26.2,15.2L-35.6,210.2z M27.7,249.8l-61.2,35.3v-70.8L27.7,179V249.8z"/>
<path class="st0" d="M46,296c-39.7,39.7-102.1,45.4-148.3,13.4c-52.8-36.5-66-108.9-29.5-161.7c33.9-49,98.8-63.9,150.1-36.6
	L7.1,129.6c-0.2,0.3-0.2,0.7,0,1c0.2,0.2,0.5,0.4,0.8,0.4H8l44.8-5.8c0.3,0,0.6-0.2,0.7-0.4c0.2-0.2,0.2-0.5,0.1-0.8L37.4,82.7
	c-0.1-0.1-0.2-0.3-0.3-0.4C36.7,82,36,82,35.7,82.5l-11.2,18.4c-18.6-10-39.4-15.3-60.7-15.3c-70.8,0-128.2,57.4-128.2,128.2
	S-107.1,342-36.3,342c34.1,0.1,66.8-13.5,90.8-37.6L46,296z"/>
</svg>
