<svg id="Layer_1" data-name="Layer 1" xmlns="http://www.w3.org/2000/svg" viewBox="0 0 150 27.58"><defs><style>.cls-1{fill:#54bbd4;}.cls-2{fill:#fff;}</style></defs><title>RCP-PoweredBy-blue-150x30</title><path class="cls-1" d="M12.82 0H150v27.58H12.82z"/><circle class="cls-1" cx="13.78" cy="13.79" r="13.78"/><path class="cls-2" d="M32.86 17v-4.93h2a1.33 1.33 0 0 1 .6.13 1.5 1.5 0 0 1 .47.36 1.71 1.71 0 0 1 .31.5 1.54 1.54 0 0 1 .11.57 1.69 1.69 0 0 1-.1.58 1.63 1.63 0 0 1-.29.5 1.43 1.43 0 0 1-.45.35 1.32 1.32 0 0 1-.59.13h-1.44V17h-.62zm.62-2.31h1.42a.74.74 0 0 0 .35-.08.79.79 0 0 0 .27-.22 1.08 1.08 0 0 0 .17-.39 1.23 1.23 0 0 0 .06-.39 1.09 1.09 0 0 0-.07-.4 1.07 1.07 0 0 0-.19-.32.84.84 0 0 0-.28-.21.79.79 0 0 0-.34-.08h-1.39v2zM40 17a2.08 2.08 0 0 1-.94-.21 2.29 2.29 0 0 1-.73-.56 2.52 2.52 0 0 1-.47-.8 2.62 2.62 0 0 1-.17-.92 2.54 2.54 0 0 1 .18-.94 2.58 2.58 0 0 1 .49-.79 2.33 2.33 0 0 1 .73-.55 2.1 2.1 0 0 1 .92-.2 2 2 0 0 1 .94.22 2.4 2.4 0 0 1 .72.57 2.63 2.63 0 0 1 .63 1.7 2.54 2.54 0 0 1-.18.94 2.59 2.59 0 0 1-.48.79 2.31 2.31 0 0 1-.73.54A2.09 2.09 0 0 1 40 17zm-1.67-2.48a2.19 2.19 0 0 0 .12.72 2 2 0 0 0 .34.62 1.62 1.62 0 0 0 .53.43 1.48 1.48 0 0 0 .69.16 1.43 1.43 0 0 0 .7-.17 1.71 1.71 0 0 0 .53-.44 2 2 0 0 0 .33-.62 2.22 2.22 0 0 0 .11-.7 2.18 2.18 0 0 0-.12-.72 1.92 1.92 0 0 0-.34-.61 1.73 1.73 0 0 0-.53-.42 1.55 1.55 0 0 0-1.38 0 1.69 1.69 0 0 0-.53.43 2 2 0 0 0-.33.61 2.16 2.16 0 0 0-.07.7zM45.65 12.1h.59l.65 1.7.65-1.7h.59l-.85 2.13.84 2 1.65-4.17h.67l-2 4.89h-.58l-1-2.31-1 2.31h-.49l-2-4.89H44l1.66 4.17.83-2zM55.25 16.41V17h-3.32v-4.93h3.26v.55h-2.64v1.58h2.29v.52h-2.29v1.69h2.7zM56.89 17v-4.93H59a1.33 1.33 0 0 1 .6.13 1.5 1.5 0 0 1 .47.36 1.72 1.72 0 0 1 .31.5 1.54 1.54 0 0 1 .11.57 1.68 1.68 0 0 1-.07.49 1.52 1.52 0 0 1-.21.43 1.36 1.36 0 0 1-.32.33 1.26 1.26 0 0 1-.42.2L60.63 17h-.7l-1.12-1.8h-1.3V17h-.62zm.62-2.31H59a.72.72 0 0 0 .35-.08.82.82 0 0 0 .27-.22 1.09 1.09 0 0 0 .16-.39 1.21 1.21 0 0 0 .06-.38 1 1 0 0 0-.07-.39 1.15 1.15 0 0 0-.19-.32.89.89 0 0 0-.28-.22.77.77 0 0 0-.3-.07h-1.49v2zM65.61 16.41V17h-3.32v-4.93h3.26v.55h-2.64v1.58h2.29v.52h-2.29v1.69h2.7zM67.25 17v-4.93h1.69a2.56 2.56 0 0 1 1 .19 2.09 2.09 0 0 1 .74.52 2.19 2.19 0 0 1 .44.77 3 3 0 0 1 .15.95 2.91 2.91 0 0 1-.17 1 2.17 2.17 0 0 1-.47.77 2.13 2.13 0 0 1-.75.49 2.58 2.58 0 0 1-1 .18h-1.63zm3.43-2.45a2.43 2.43 0 0 0-.11-.76 1.63 1.63 0 0 0-.34-.6 1.57 1.57 0 0 0-.55-.39 1.82 1.82 0 0 0-.74-.14h-1.07v3.79h1.07a1.83 1.83 0 0 0 .75-.14 1.5 1.5 0 0 0 .54-.4 1.76 1.76 0 0 0 .33-.6 2.41 2.41 0 0 0 .12-.8zM79.33 15.7a1.17 1.17 0 0 1-.11.52 1.2 1.2 0 0 1-.31.4 1.4 1.4 0 0 1-.45.26 1.68 1.68 0 0 1-.55.09h-2.34v-4.9H78a1 1 0 0 1 .46.11 1.15 1.15 0 0 1 .35.29 1.3 1.3 0 0 1 .22.4 1.35 1.35 0 0 1 .08.45 1.31 1.31 0 0 1-.18.67 1.11 1.11 0 0 1-.52.46 1.23 1.23 0 0 1 .66.46 1.3 1.3 0 0 1 .26.79zm-3.13-3.09v1.63h1.56a.69.69 0 0 0 .3-.07.74.74 0 0 0 .23-.17.83.83 0 0 0 .16-.26.84.84 0 0 0 .06-.31.93.93 0 0 0-.06-.32.85.85 0 0 0-.15-.26.64.64 0 0 0-.23-.17.66.66 0 0 0-.28-.06h-1.6zm2.51 3a.9.9 0 0 0-.06-.32.92.92 0 0 0-.17-.29.74.74 0 0 0-.24-.19.68.68 0 0 0-.3-.07h-1.75v1.68h1.7a.74.74 0 0 0 .32-.07.85.85 0 0 0 .25-.18.84.84 0 0 0 .24-.58zM81.05 12.07l1.48 2.55L84 12.07h.7l-1.86 3.1V17h-.62v-1.8l-1.85-3.09h.68zM13.88 19.79h-.09l-5.16-3a.21.21 0 0 1-.11-.16v-5.94a.21.21 0 0 1 .11-.16h.05l5.11-3h.18l5.13 3h.07a.26.26 0 0 1 .14.16v5.94a.26.26 0 0 1-.15.16l-5.17 3a.29.29 0 0 1-.11 0zm.16-6v5.53l4.77-2.75V11zM9 16.52l4.77 2.75v-5.52l-2-1.13v1.86l-.15-.22h-.37l-.46-.47-.26.11V12L9 11v5.53zm2.82-4.28l2 1.18 4.75-2.74-2-1.18zm-2.7-1.56l1.68 1 4.75-2.74-1.68-1z"/><path class="cls-2" d="M13.83 23.71a10 10 0 1 1 5.69-18.22l-.52.76a9.07 9.07 0 1 0 1.25 13.88l.66.66a10 10 0 0 1-7.08 2.92z"/><path class="cls-2" d="M17.28 7.17L19.5 3.5l1.27 3.22-3.49.45z"/><path class="cls-2" d="M17.28 7.25a.07.07 0 0 1-.06 0 .07.07 0 0 1 0-.08l2.23-3.68a.07.07 0 0 1 .07 0 .07.07 0 0 1 .06 0l1.27 3.22a.07.07 0 0 1-.06.1l-3.5.46zm2.21-3.59l-2.07 3.42 3.25-.43zM89.92 17.14V9.69h3.14a1.93 1.93 0 0 1 .89.2 2.33 2.33 0 0 1 .7.53 2.45 2.45 0 0 1 .46.75 2.34 2.34 0 0 1 .16.85 2.52 2.52 0 0 1-.12.78 2.42 2.42 0 0 1-.34.67 2 2 0 0 1-.52.5 1.83 1.83 0 0 1-.68.28l1.82 2.87h-.83l-1.75-2.75h-2.2v2.75h-.73zm.73-3.4h2.43a1.25 1.25 0 0 0 .59-.14 1.41 1.41 0 0 0 .46-.38 1.86 1.86 0 0 0 .29-.55 2 2 0 0 0 .1-.64 1.81 1.81 0 0 0-.45-1.18 1.56 1.56 0 0 0-.48-.37 1.31 1.31 0 0 0-.59-.14h-2.35v3.4zM98.79 17.24a2.63 2.63 0 0 1-1.1-.23 2.69 2.69 0 0 1-.86-.62 2.86 2.86 0 0 1-.57-.91 3 3 0 0 1-.2-1.1 2.89 2.89 0 0 1 .2-1.08 2.81 2.81 0 0 1 .57-.89 2.69 2.69 0 0 1 .86-.61 2.76 2.76 0 0 1 2.19 0 2.61 2.61 0 0 1 .85.61 2.88 2.88 0 0 1 .75 2v.17a.42.42 0 0 1 0 .12H96.8a2.29 2.29 0 0 0 .2.81 2.22 2.22 0 0 0 .45.64 2 2 0 0 0 .62.42 1.86 1.86 0 0 0 .75.15 1.94 1.94 0 0 0 .52-.07 2.12 2.12 0 0 0 .48-.2 1.79 1.79 0 0 0 .4-.31 1.33 1.33 0 0 0 .27-.4l.62.17a1.82 1.82 0 0 1-.36.55 2.48 2.48 0 0 1-.53.43 2.62 2.62 0 0 1-.67.28 2.92 2.92 0 0 1-.76.07zm2-3.12a2.21 2.21 0 0 0-.2-.8 2.18 2.18 0 0 0-.44-.62 2 2 0 0 0-.62-.41 1.92 1.92 0 0 0-.75-.15 2 2 0 0 0-.75.15 1.94 1.94 0 0 0-.62.41 2 2 0 0 0-.43.63 2.38 2.38 0 0 0-.19.8h4zM116.26 17.17h-1.45v-3.12a1.59 1.59 0 0 0-.18-1 .76.76 0 0 0-.65-.31 1 1 0 0 0-.38.08 1.52 1.52 0 0 0-.39.24 2 2 0 0 0-.34.36.85.85 0 0 0-.22.46v3.24h-1.45v-8h1.45v3.47a1.31 1.31 0 0 1 .82-.82 2.32 2.32 0 0 1 1.15-.29 1.81 1.81 0 0 1 .87.18 1.39 1.39 0 0 1 .52.49 2 2 0 0 1 .23.69 4.29 4.29 0 0 1 0 .8v3.46zM119.45 17.24a2.09 2.09 0 0 1-.74-.13 1.78 1.78 0 0 1-.6-.37 1.7 1.7 0 0 1-.39-.55 1.66 1.66 0 0 1-.14-.69 1.53 1.53 0 0 1 .17-.72 1.65 1.65 0 0 1 .48-.56 2.38 2.38 0 0 1 .74-.36 3.22 3.22 0 0 1 .94-.13 4.57 4.57 0 0 1 .76.06 1.6 1.6 0 0 1 .66.18v-.31a1.12 1.12 0 0 0-.35-.84 1.34 1.34 0 0 0-.94-.29 2.49 2.49 0 0 0-.87.16 4 4 0 0 0-.86.46l-.43-.89a4.05 4.05 0 0 1 2.28-.7 2.86 2.86 0 0 1 1.9.58 2.17 2.17 0 0 1 .72 1.68v1.71a1.23 1.23 0 0 0-.09.31l.09.1v1.19a1.18 1.18 0 0 1-.52.07.79.79 0 0 1-.56-.18.73.73 0 0 1-.24-.47v-.3a2.41 2.41 0 0 1-.88.73 2.53 2.53 0 0 1-1.13.26zm.4-1a1.83 1.83 0 0 0 .68-.13 1.4 1.4 0 0 0 .54-.34.56.56 0 0 0 .27-.4v-.64a1.62 1.62 0 0 0-.59-.15 3.16 3.16 0 0 0-.59-.06 1.54 1.54 0 0 0-.9.25.75.75 0 0 0-.08 1.22 1 1 0 0 0 .67.22zM127.14 12.86a4.84 4.84 0 0 0-.94.25.77.77 0 0 0-.52.71v3.36h-1.45v-5.81h1.45v1.45a.73.73 0 0 1 .18-.51 2.2 2.2 0 0 1 .34-.39 2.44 2.44 0 0 1 .42-.36 1.41 1.41 0 0 1 .41-.19h.17a.52.52 0 0 1-.08.22v1.28zM130.29 17.17a2.26 2.26 0 0 1-1-.22 2.43 2.43 0 0 1-.78-.6 2.74 2.74 0 0 1-.51-.89 3.17 3.17 0 0 1-.18-1.07 3.21 3.21 0 0 1 .19-1.11 2.89 2.89 0 0 1 .52-.9 2.39 2.39 0 0 1 .81-.61 2.42 2.42 0 0 1 1-.22 2 2 0 0 1 1.09.29 1.28 1.28 0 0 1 .76.77v-1.24h1.45v5.51a2.54 2.54 0 0 1-.31 1.09 2.51 2.51 0 0 1-.67.82 2.93 2.93 0 0 1-1 .51 4.08 4.08 0 0 1-1.23.18 3.46 3.46 0 0 1-1.52-.3 3.08 3.08 0 0 1-1.06-.84l.76-.74a2.17 2.17 0 0 0 .79.61 2.38 2.38 0 0 0 1 .22 2.18 2.18 0 0 0 .62-.09 1.51 1.51 0 0 0 .53-.28 1.43 1.43 0 0 0 .42-.48 1.68 1.68 0 0 0 .19-.69v-.71a1.29 1.29 0 0 1-.82.73 2.48 2.48 0 0 1-1.05.26zm.47-1.17a1.31 1.31 0 0 0 .44 0 1.56 1.56 0 0 0 .39-.2 1.93 1.93 0 0 0 .37-.29.83.83 0 0 0 .27-.36v-1.34a1.24 1.24 0 0 0-.65-.78 1.49 1.49 0 0 0-.87-.29 1.27 1.27 0 0 0-.6.14 1.48 1.48 0 0 0-.46.38 1.71 1.71 0 0 0-.29.54 2 2 0 0 0-.1.63 1.71 1.71 0 0 0 .11.63 1.62 1.62 0 0 0 .32.51 1.51 1.51 0 0 0 .48.35 1.41 1.41 0 0 0 .59.08zM137.35 17.24a3 3 0 0 1-1.19-.23 2.69 2.69 0 0 1-1.49-1.51 2.89 2.89 0 0 1-.2-1.08 3.06 3.06 0 0 1 .2-1.11 2.7 2.7 0 0 1 .58-.91 2.75 2.75 0 0 1 .92-.62 3.06 3.06 0 0 1 1.21-.23 3 3 0 0 1 1.2.23 2.77 2.77 0 0 1 .9.62 2.63 2.63 0 0 1 .57.9 3 3 0 0 1 .19 1.07v.34a1.45 1.45 0 0 1 0 .29H136s.07.33.16.5a1.26 1.26 0 0 0 .32.39 1.36 1.36 0 0 0 .45.25 1.47 1.47 0 0 0 .52.09 1.63 1.63 0 0 0 .75-.23 1.09 1.09 0 0 0 .51-.54l1.21.33a2.45 2.45 0 0 1-1 1 3 3 0 0 1-1.57.45zm1.43-3a1.34 1.34 0 0 0-.46-1.16 1.48 1.48 0 0 0-1-.46 1.39 1.39 0 0 0-.53.06 1.33 1.33 0 0 0-.43.26 2.36 2.36 0 0 0-.31.59.77.77 0 0 0-.14.72h2.85zM106.67 16.06a2.66 2.66 0 1 1 2.3-4l1.09-.58a3.89 3.89 0 1 0-.12 4l-1-.66a2.66 2.66 0 0 1-2.27 1.24z"/></svg>