<?xml version="1.0" encoding="utf-8"?>
<svg version="1.1" id="rc_widget__banner"
	 xmlns="http://www.w3.org/2000/svg" xmlns:xlink="http://www.w3.org/1999/xlink" x="0px" y="0px" viewBox="0 0 206.668 38"
	 style="enable-background:new 0 0 206.668 38;" xml:space="preserve">
<style type="text/css">
	.st0{fill:#54BBD4;}
	.st1{fill:#FFFFFF;}
</style>
<path class="st0" d="M18.374,0v0.043C8.174,0.37,0,8.721,0,19c0,10.281,8.174,18.63,18.374,18.957V38h188.294V0H18.374z"/>
<g>
	<path class="st1" d="M26.319,14.499l-7.062-4.08c-0.039-0.023-0.084-0.035-0.13-0.035c-0.043,0-0.089,0.012-0.129,0.035
		l-7.038,4.065l-0.006,0.003c-0.006,0.002-0.014,0.005-0.019,0.007l-0.008,0.003l-0.04,0.015c-0.08,0.047-0.151,0.132-0.151,0.222
		v8.182c0,0.09,0.072,0.177,0.154,0.224L19,27.231c0.039,0.023,0.084,0.034,0.128,0.034c0.046,0,0.128-0.011,0.165-0.034
		l7.122-4.091c0.082-0.047,0.203-0.134,0.203-0.224v-8.182c0-0.09-0.119-0.173-0.2-0.222L26.319,14.499z M19.128,10.94l2.315,1.337
		l-6.539,3.777l-2.315-1.336L19.128,10.94z M19.004,26.56l-6.575-3.794v-7.617l2.076,1.364v2.644l0.361-0.15l0.631,0.642h0.535
		l0.203,0.301V17.39l2.769,1.554V26.56z M19.128,18.496l-2.819-1.628l6.542-3.777l2.818,1.628L19.128,18.496z M25.925,22.767
		L19.35,26.56v-7.617l6.575-3.793V22.767z"/>
	<path class="st1" d="M27.892,27.732c-4.872,4.873-12.801,4.873-17.673,0c-4.874-4.873-4.874-12.801,0-17.673
		c3.928-3.928,9.901-4.751,14.694-2.196l-1.195,1.971c-0.02,0.033-0.019,0.074,0.002,0.106c0.019,0.028,0.05,0.045,0.084,0.045
		c0.004,0,0.009,0,0.013-0.001l4.816-0.63c0.03-0.004,0.057-0.022,0.073-0.048c0.016-0.026,0.019-0.059,0.007-0.087l-1.745-4.435
		c-0.014-0.035-0.047-0.06-0.085-0.063c-0.032-0.01-0.074,0.015-0.094,0.048L25.58,6.761C20.283,3.903,13.659,4.799,9.311,9.15
		c-5.374,5.374-5.374,14.116,0,19.49c2.686,2.687,6.216,4.033,9.745,4.033c3.528,0,7.058-1.346,9.745-4.033L27.892,27.732z"/>
</g>
<g>
	<path class="st1" d="M44.644,23.364V16.63h2.808c0.297,0,0.571,0.062,0.821,0.185c0.25,0.123,0.465,0.288,0.645,0.493
		c0.18,0.206,0.321,0.437,0.422,0.692s0.152,0.518,0.152,0.783c0,0.278-0.047,0.547-0.142,0.806c-0.095,0.26-0.229,0.49-0.403,0.693
		s-0.383,0.363-0.626,0.484c-0.244,0.119-0.514,0.18-0.811,0.18h-2.011v2.418H44.644z M45.498,20.186h1.963
		c0.177,0,0.337-0.035,0.479-0.109c0.142-0.072,0.264-0.174,0.365-0.302c0.101-0.13,0.18-0.28,0.237-0.451
		c0.057-0.171,0.085-0.351,0.085-0.54c0-0.196-0.033-0.38-0.1-0.551s-0.155-0.319-0.266-0.445c-0.11-0.127-0.24-0.225-0.389-0.294
		c-0.149-0.07-0.305-0.104-0.47-0.104h-1.906V20.186z"/>
	<path class="st1" d="M54.548,23.413c-0.474,0-0.906-0.098-1.295-0.291c-0.389-0.191-0.722-0.447-1-0.768
		c-0.278-0.318-0.493-0.684-0.645-1.096c-0.152-0.41-0.228-0.832-0.228-1.262c0-0.449,0.081-0.878,0.242-1.29
		s0.384-0.774,0.669-1.091c0.284-0.316,0.621-0.567,1.01-0.754c0.389-0.187,0.811-0.28,1.267-0.28c0.474,0,0.904,0.1,1.29,0.299
		s0.718,0.46,0.996,0.782c0.278,0.323,0.493,0.688,0.645,1.096c0.151,0.408,0.228,0.824,0.228,1.248
		c0,0.449-0.081,0.879-0.242,1.291c-0.161,0.41-0.382,0.771-0.664,1.086c-0.282,0.312-0.617,0.562-1.006,0.748
		C55.425,23.319,55.003,23.413,54.548,23.413z M52.243,19.997c0,0.342,0.056,0.672,0.166,0.992c0.111,0.318,0.267,0.602,0.47,0.848
		c0.202,0.248,0.446,0.443,0.73,0.588c0.285,0.146,0.601,0.219,0.948,0.219c0.361,0,0.683-0.076,0.968-0.232
		c0.285-0.154,0.526-0.357,0.726-0.607s0.351-0.531,0.456-0.848c0.104-0.316,0.156-0.637,0.156-0.959
		c0-0.341-0.055-0.671-0.166-0.991s-0.269-0.601-0.474-0.845c-0.206-0.243-0.449-0.438-0.73-0.583s-0.593-0.218-0.935-0.218
		c-0.36,0-0.683,0.075-0.967,0.228c-0.285,0.151-0.526,0.351-0.726,0.598c-0.199,0.246-0.353,0.527-0.46,0.844
		C52.296,19.346,52.243,19.668,52.243,19.997z"/>
	<path class="st1" d="M62.263,16.667h0.806l0.892,2.344l0.901-2.344h0.806l-1.167,2.932l1.157,2.779l2.276-5.748h0.93l-2.817,6.734
		h-0.74l-1.337-3.178l-1.347,3.178h-0.74l-2.808-6.734h0.92l2.286,5.748l1.148-2.779L62.263,16.667z"/>
	<path class="st1" d="M75.496,22.606v0.758h-4.572V16.63h4.487v0.759h-3.633v2.182h3.159v0.711h-3.159v2.324H75.496z"/>
	<path class="st1" d="M77.758,23.364V16.63h2.884c0.297,0,0.57,0.062,0.82,0.185s0.465,0.288,0.645,0.493
		c0.18,0.206,0.321,0.437,0.422,0.692c0.101,0.256,0.152,0.518,0.152,0.783c0,0.233-0.033,0.46-0.1,0.678s-0.162,0.416-0.285,0.592
		c-0.124,0.178-0.272,0.33-0.446,0.455c-0.174,0.127-0.369,0.219-0.583,0.275l1.631,2.58h-0.967l-1.537-2.418h-1.783v2.418H77.758z
		 M78.612,20.186h2.039c0.177,0,0.337-0.037,0.479-0.113c0.143-0.076,0.264-0.178,0.365-0.308s0.18-0.28,0.237-0.451
		c0.057-0.17,0.085-0.348,0.085-0.53c0-0.19-0.033-0.369-0.1-0.536c-0.066-0.168-0.155-0.316-0.266-0.446
		c-0.111-0.129-0.241-0.23-0.389-0.304c-0.148-0.072-0.305-0.108-0.469-0.108h-1.982V20.186z"/>
	<path class="st1" d="M89.763,22.606v0.758H85.19V16.63h4.487v0.759h-3.633v2.182h3.159v0.711h-3.159v2.324H89.763z"/>
	<path class="st1" d="M92.025,23.364V16.63h2.333c0.538,0,1.01,0.088,1.418,0.266c0.408,0.177,0.748,0.417,1.02,0.721
		c0.271,0.304,0.476,0.659,0.612,1.067c0.136,0.407,0.204,0.843,0.204,1.303c0,0.514-0.076,0.977-0.228,1.391
		s-0.37,0.768-0.654,1.062c-0.285,0.293-0.628,0.521-1.029,0.682c-0.402,0.162-0.849,0.242-1.342,0.242H92.025z M96.749,19.987
		c0-0.378-0.052-0.728-0.157-1.047s-0.259-0.593-0.465-0.82c-0.206-0.229-0.457-0.406-0.754-0.536
		c-0.297-0.13-0.636-0.194-1.015-0.194h-1.479v5.217h1.479c0.386,0,0.729-0.066,1.029-0.199s0.55-0.316,0.75-0.551
		s0.351-0.51,0.455-0.83C96.697,20.707,96.749,20.36,96.749,19.987z"/>
	<path class="st1" d="M108.662,21.627c0,0.26-0.052,0.498-0.156,0.713s-0.246,0.398-0.427,0.549c-0.181,0.152-0.39,0.27-0.626,0.352
		c-0.237,0.082-0.492,0.123-0.764,0.123h-3.197V16.63h3.349c0.233,0,0.445,0.051,0.635,0.151c0.189,0.102,0.352,0.232,0.484,0.394
		s0.234,0.345,0.308,0.551c0.073,0.205,0.109,0.412,0.109,0.621c0,0.335-0.084,0.645-0.251,0.93
		c-0.168,0.284-0.406,0.496-0.717,0.634c0.386,0.115,0.691,0.324,0.916,0.631S108.662,21.211,108.662,21.627z M104.347,17.369v2.248
		h2.144c0.152,0,0.291-0.029,0.418-0.09c0.126-0.06,0.234-0.141,0.326-0.242c0.092-0.101,0.165-0.22,0.219-0.355
		s0.08-0.279,0.08-0.432c0-0.158-0.025-0.307-0.076-0.445c-0.05-0.14-0.117-0.26-0.203-0.36c-0.086-0.102-0.189-0.181-0.312-0.237
		c-0.124-0.058-0.256-0.086-0.395-0.086H104.347z M107.799,21.477c0-0.152-0.026-0.299-0.08-0.441s-0.127-0.268-0.219-0.375
		s-0.2-0.193-0.326-0.256c-0.127-0.062-0.266-0.096-0.418-0.096h-2.409v2.314h2.343c0.158,0,0.304-0.031,0.437-0.094
		s0.249-0.146,0.351-0.252c0.102-0.104,0.18-0.227,0.237-0.365S107.799,21.627,107.799,21.477z"/>
	<path class="st1" d="M111.045,16.63l2.039,3.509l2.059-3.509h0.93l-2.562,4.277v2.457h-0.854v-2.475l-2.551-4.259H111.045z"/>
</g>
<g>
	<path class="st1" d="M124.238,18.881h3.262c0.286,0,0.553-0.065,0.793-0.194c0.24-0.129,0.442-0.295,0.608-0.516
		c0.166-0.212,0.304-0.461,0.396-0.728c0.092-0.276,0.138-0.562,0.138-0.857c0-0.295-0.055-0.59-0.166-0.866
		c-0.111-0.276-0.249-0.516-0.433-0.719c-0.184-0.203-0.396-0.369-0.645-0.498c-0.249-0.12-0.507-0.184-0.783-0.184h-3.17V18.881z
		 M123.261,23.433v-9.971h4.211c0.433,0,0.829,0.092,1.189,0.276s0.673,0.424,0.931,0.719c0.258,0.295,0.47,0.627,0.608,1.004
		c0.147,0.378,0.221,0.756,0.221,1.133c0,0.369-0.055,0.719-0.166,1.051c-0.111,0.332-0.258,0.636-0.452,0.894
		c-0.194,0.267-0.424,0.488-0.691,0.673s-0.571,0.304-0.912,0.369l2.442,3.852h-1.106l-2.341-3.677h-2.949v3.677H123.261
		L123.261,23.433z"/>
	<path class="st1" d="M138.466,19.387c-0.028-0.396-0.12-0.756-0.276-1.069c-0.157-0.323-0.35-0.599-0.59-0.839
		c-0.24-0.24-0.516-0.415-0.829-0.553c-0.313-0.129-0.645-0.194-1.004-0.194s-0.691,0.065-1.014,0.194
		c-0.323,0.129-0.599,0.313-0.839,0.553c-0.24,0.23-0.433,0.516-0.571,0.839c-0.147,0.332-0.23,0.682-0.258,1.069H138.466z
		 M135.775,23.571c-0.534,0-1.023-0.101-1.465-0.304s-0.829-0.479-1.161-0.829c-0.332-0.35-0.581-0.756-0.765-1.216
		c-0.184-0.461-0.276-0.949-0.276-1.474c0-0.516,0.092-0.995,0.276-1.456c0.184-0.452,0.433-0.848,0.756-1.189
		s0.71-0.617,1.161-0.811c0.452-0.203,0.931-0.304,1.456-0.304c0.534,0,1.023,0.101,1.465,0.304c0.442,0.203,0.829,0.47,1.143,0.82
		c0.323,0.35,0.562,0.746,0.746,1.198c0.175,0.452,0.267,0.931,0.267,1.438v0.221c0,0.074-0.009,0.129-0.009,0.157h-6.266
		c0.028,0.396,0.12,0.756,0.276,1.087c0.157,0.332,0.35,0.617,0.599,0.866c0.24,0.24,0.525,0.433,0.839,0.571
		c0.313,0.138,0.645,0.203,1.004,0.203c0.23,0,0.47-0.028,0.7-0.101c0.23-0.065,0.452-0.157,0.645-0.267s0.378-0.249,0.534-0.415
		c0.157-0.166,0.286-0.341,0.369-0.544l0.829,0.221c-0.111,0.276-0.267,0.516-0.479,0.737c-0.203,0.221-0.442,0.415-0.719,0.581
		c-0.276,0.166-0.571,0.295-0.903,0.378C136.466,23.525,136.125,23.571,135.775,23.571"/>
</g>
<g>
	<path class="st1" d="M146.17,22.226c-1.972,0-3.566-1.603-3.566-3.566c0-1.972,1.603-3.566,3.566-3.566
		c1.327,0,2.47,0.728,3.078,1.806l1.456-0.783c-0.903-1.594-2.589-2.682-4.543-2.682c-2.884,0-5.234,2.35-5.234,5.234
		s2.35,5.234,5.234,5.234c1.834,0,3.447-0.958,4.386-2.387l-1.401-0.894C148.511,21.571,147.414,22.226,146.17,22.226z"/>
	<path class="st1" d="M159.173,23.433h-1.88v-4.128c0-0.581-0.111-1.004-0.323-1.281c-0.212-0.276-0.516-0.415-0.912-0.415
		c-0.166,0-0.35,0.037-0.534,0.111c-0.184,0.074-0.369,0.175-0.534,0.313c-0.166,0.138-0.323,0.295-0.461,0.488
		c-0.138,0.184-0.24,0.396-0.313,0.617v4.294h-1.88V13.176h1.88v4.257c0.267-0.479,0.636-0.848,1.106-1.106
		c0.461-0.258,0.977-0.387,1.539-0.387c0.479,0,0.866,0.083,1.161,0.249c0.295,0.166,0.534,0.378,0.7,0.654
		c0.166,0.267,0.286,0.581,0.35,0.922c0.065,0.35,0.101,0.7,0.101,1.069V23.433L159.173,23.433z"/>
	<path class="st1" d="M163.9,22.198c0.313,0,0.617-0.055,0.903-0.166c0.286-0.111,0.507-0.267,0.663-0.452
		c0.203-0.157,0.313-0.341,0.313-0.534v-0.839c-0.221-0.083-0.47-0.157-0.728-0.203c-0.267-0.055-0.516-0.074-0.756-0.074
		c-0.488,0-0.885,0.111-1.198,0.332s-0.461,0.498-0.461,0.839c0,0.323,0.12,0.581,0.369,0.793
		C163.246,22.087,163.55,22.198,163.9,22.198 M163.366,23.571c-0.359,0-0.691-0.055-0.995-0.175
		c-0.304-0.12-0.571-0.286-0.802-0.488c-0.23-0.212-0.405-0.461-0.525-0.737c-0.129-0.276-0.194-0.59-0.194-0.931
		c0-0.35,0.074-0.663,0.23-0.958s0.369-0.544,0.645-0.746c0.276-0.212,0.608-0.369,0.995-0.488s0.802-0.175,1.262-0.175
		c0.323,0,0.645,0.028,0.958,0.083c0.313,0.055,0.59,0.138,0.839,0.24V18.77c0-0.488-0.138-0.857-0.415-1.124
		c-0.276-0.258-0.691-0.396-1.226-0.396c-0.396,0-0.774,0.065-1.152,0.212c-0.378,0.138-0.756,0.35-1.152,0.617l-0.571-1.189
		c0.949-0.627,1.972-0.94,3.059-0.94c1.06,0,1.88,0.258,2.46,0.774c0.59,0.516,0.875,1.272,0.875,2.258v2.285
		c0,0.194,0.037,0.341,0.101,0.424c0.074,0.083,0.184,0.129,0.35,0.138v1.603c-0.323,0.065-0.599,0.101-0.829,0.101
		c-0.359,0-0.627-0.083-0.82-0.24c-0.194-0.157-0.313-0.369-0.359-0.636l-0.046-0.405c-0.332,0.433-0.728,0.756-1.198,0.986
		C164.407,23.461,163.9,23.571,163.366,23.571"/>
	<path class="st1" d="M174.359,17.701c-0.571,0.009-1.078,0.12-1.53,0.332c-0.452,0.212-0.774,0.525-0.968,0.949v4.451h-1.88v-7.354
		h1.723v1.576c0.129-0.249,0.286-0.479,0.461-0.682c0.175-0.203,0.369-0.378,0.571-0.525c0.203-0.147,0.415-0.267,0.627-0.341
		c0.212-0.083,0.415-0.12,0.608-0.12h0.23c0.046,0,0.101,0,0.147,0.018v1.696H174.359z"/>
	<path class="st1" d="M179.391,21.968c0.203,0,0.405-0.037,0.59-0.101c0.184-0.065,0.359-0.157,0.516-0.267s0.304-0.24,0.424-0.396
		c0.12-0.147,0.212-0.313,0.276-0.479v-1.742c-0.166-0.433-0.433-0.774-0.793-1.041c-0.359-0.258-0.737-0.396-1.133-0.396
		c-0.295,0-0.553,0.065-0.783,0.194c-0.23,0.129-0.433,0.295-0.608,0.507c-0.166,0.212-0.295,0.452-0.387,0.728
		c-0.083,0.267-0.129,0.553-0.129,0.839c0,0.304,0.055,0.581,0.157,0.839s0.249,0.488,0.433,0.691s0.396,0.35,0.636,0.461
		C178.838,21.912,179.105,21.968,179.391,21.968 M178.764,23.47c-0.498,0-0.949-0.101-1.345-0.295
		c-0.405-0.194-0.756-0.47-1.041-0.811c-0.295-0.341-0.525-0.737-0.682-1.189c-0.157-0.452-0.24-0.931-0.24-1.438
		c0-0.534,0.083-1.032,0.258-1.484c0.166-0.461,0.405-0.866,0.7-1.207c0.295-0.35,0.663-0.617,1.078-0.811
		c0.424-0.203,0.885-0.295,1.392-0.295c0.571,0,1.069,0.129,1.502,0.387s0.783,0.599,1.069,1.032v-1.29h1.64v7.004
		c0,0.544-0.101,1.032-0.304,1.465c-0.212,0.433-0.488,0.793-0.848,1.097c-0.359,0.295-0.793,0.525-1.29,0.691
		c-0.498,0.157-1.041,0.24-1.631,0.24c-0.802,0-1.484-0.138-2.027-0.405s-1.014-0.645-1.41-1.133l1.023-0.995
		c0.286,0.35,0.636,0.617,1.06,0.811c0.424,0.203,0.875,0.295,1.355,0.295c0.286,0,0.571-0.037,0.839-0.12
		c0.267-0.083,0.507-0.203,0.71-0.369c0.203-0.166,0.369-0.387,0.479-0.645c0.12-0.258,0.175-0.571,0.175-0.931v-0.922
		c-0.24,0.424-0.581,0.746-1.023,0.977C179.741,23.359,179.271,23.47,178.764,23.47"/>
	<path class="st1" d="M190.652,19.129c-0.046-0.553-0.249-0.995-0.608-1.327c-0.359-0.332-0.802-0.498-1.318-0.498
		c-0.249,0-0.488,0.046-0.71,0.138c-0.221,0.092-0.415,0.212-0.581,0.369c-0.166,0.157-0.304,0.35-0.415,0.571
		c-0.111,0.221-0.175,0.47-0.194,0.746L190.652,19.129L190.652,19.129z M188.735,23.571c-0.59,0-1.124-0.101-1.603-0.304
		c-0.479-0.203-0.885-0.479-1.226-0.82c-0.332-0.35-0.599-0.746-0.783-1.207c-0.184-0.461-0.276-0.94-0.276-1.447
		c0-0.525,0.092-1.014,0.267-1.484c0.175-0.461,0.433-0.875,0.774-1.226c0.341-0.35,0.746-0.627,1.226-0.839
		c0.479-0.203,1.023-0.313,1.622-0.313c0.599,0,1.133,0.101,1.613,0.313c0.47,0.203,0.875,0.479,1.207,0.829
		c0.332,0.35,0.581,0.746,0.756,1.207c0.175,0.461,0.258,0.931,0.258,1.428c0,0.12,0,0.24-0.009,0.35
		c-0.009,0.111-0.018,0.203-0.037,0.276h-5.686c0.028,0.295,0.101,0.553,0.212,0.774c0.111,0.221,0.258,0.415,0.433,0.571
		c0.175,0.157,0.378,0.286,0.599,0.369c0.221,0.083,0.461,0.129,0.7,0.129c0.378,0,0.728-0.092,1.06-0.276
		c0.332-0.184,0.562-0.424,0.682-0.728l1.613,0.452c-0.267,0.562-0.71,1.023-1.299,1.382
		C190.274,23.396,189.565,23.571,188.735,23.571"/>
</g>
</svg>
