<?xml version="1.0" encoding="utf-8"?>
<!-- Generator: Adobe Illustrator 19.1.0, SVG Export Plug-In . SVG Version: 6.00 Build 0)  -->
<svg version="1.1" id="Layer_2" xmlns="http://www.w3.org/2000/svg" xmlns:xlink="http://www.w3.org/1999/xlink" x="0px" y="0px"
	 viewBox="-199.9 203.6 102.7 20" style="enable-background:new -199.9 203.6 102.7 20;" xml:space="preserve">
<style type="text/css">
	.st0{fill:#FFFFFF;}
</style>
<g>
	<g>
		<path class="st0" d="M-165.9,217c-2.9,0-5.3-2.4-5.3-5.3c0-2.9,2.4-5.3,5.3-5.3c2,0,3.7,1.1,4.6,2.7l2.2-1.2c-1.3-2.4-3.8-4-6.7-4
			c-4.3,0-7.8,3.5-7.8,7.8s3.5,7.8,7.8,7.8c2.7,0,5.1-1.4,6.5-3.5l-2.1-1.3C-162.4,216.1-164.2,217-165.9,217z"/>
	</g>
</g>
<g>
	<path class="st0" d="M-198.4,212.1h4.8c0.4,0,0.8-0.1,1.2-0.3s0.7-0.4,0.9-0.8c0.2-0.3,0.5-0.7,0.6-1.1c0.1-0.4,0.2-0.8,0.2-1.3
		c0-0.4-0.1-0.9-0.2-1.3c-0.2-0.4-0.4-0.8-0.6-1.1c-0.3-0.3-0.6-0.5-1-0.7s-0.8-0.3-1.2-0.3h-4.7V212.1z M-199.9,218.8V204h6.2
		c0.6,0,1.2,0.1,1.8,0.4c0.5,0.3,1,0.6,1.4,1.1s0.7,0.9,0.9,1.5s0.3,1.1,0.3,1.7c0,0.5-0.1,1.1-0.2,1.6c-0.2,0.5-0.4,0.9-0.7,1.3
		c-0.3,0.4-0.6,0.7-1,1s-0.8,0.5-1.4,0.5l3.6,5.7h-1.6l-3.5-5.5h-4.4v5.5H-199.9L-199.9,218.8z"/>
	<path class="st0" d="M-177.4,212.8c0-0.6-0.2-1.1-0.4-1.6s-0.5-0.9-0.9-1.2c-0.4-0.4-0.8-0.6-1.2-0.8c-0.5-0.2-1-0.3-1.5-0.3
		s-1,0.1-1.5,0.3s-0.9,0.5-1.2,0.8c-0.4,0.3-0.6,0.8-0.8,1.2c-0.2,0.5-0.3,1-0.4,1.6H-177.4z M-181.4,219c-0.8,0-1.5-0.2-2.2-0.5
		s-1.2-0.7-1.7-1.2s-0.9-1.1-1.1-1.8c-0.3-0.7-0.4-1.4-0.4-2.2s0.1-1.5,0.4-2.2c0.3-0.7,0.6-1.3,1.1-1.8s1.1-0.9,1.7-1.2
		c0.7-0.3,1.4-0.5,2.2-0.5s1.5,0.2,2.2,0.5s1.2,0.7,1.7,1.2s0.8,1.1,1.1,1.8s0.4,1.4,0.4,2.1v0.3c0,0.1,0,0.2,0,0.2h-9.3
		c0,0.6,0.2,1.1,0.4,1.6s0.5,0.9,0.9,1.3c0.4,0.4,0.8,0.6,1.2,0.8c0.5,0.2,1,0.3,1.5,0.3c0.3,0,0.7,0,1-0.2c0.3-0.1,0.7-0.2,1-0.4
		s0.6-0.4,0.8-0.6s0.4-0.5,0.5-0.8l1.2,0.3c-0.2,0.4-0.4,0.8-0.7,1.1s-0.7,0.6-1.1,0.9c-0.4,0.2-0.8,0.4-1.3,0.6
		C-180.4,219-180.9,219-181.4,219"/>
	<g>
		<path class="st0" d="M-146.7,218.8h-2.8v-6.1c0-0.9-0.2-1.5-0.5-1.9s-0.8-0.6-1.4-0.6c-0.2,0-0.5,0.1-0.8,0.2
			c-0.3,0.1-0.5,0.3-0.8,0.5c-0.2,0.2-0.5,0.4-0.7,0.7s-0.4,0.6-0.5,0.9v6.4h-2.8v-15.3h2.8v6.3c0.4-0.7,0.9-1.3,1.6-1.6
			c0.7-0.4,1.4-0.6,2.3-0.6c0.7,0,1.3,0.1,1.7,0.4c0.4,0.2,0.8,0.6,1,1s0.4,0.9,0.5,1.4s0.2,1,0.2,1.6L-146.7,218.8L-146.7,218.8z"
			/>
		<path class="st0" d="M-139.7,217c0.5,0,0.9-0.1,1.3-0.2c0.4-0.2,0.8-0.4,1-0.7c0.3-0.2,0.5-0.5,0.5-0.8v-1.2
			c-0.3-0.1-0.7-0.2-1.1-0.3c-0.4-0.1-0.8-0.1-1.1-0.1c-0.7,0-1.3,0.2-1.8,0.5s-0.7,0.7-0.7,1.2s0.2,0.9,0.5,1.2
			C-140.7,216.8-140.2,217-139.7,217 M-140.4,219c-0.5,0-1-0.1-1.5-0.3s-0.8-0.4-1.2-0.7c-0.3-0.3-0.6-0.7-0.8-1.1
			c-0.2-0.4-0.3-0.9-0.3-1.4s0.1-1,0.3-1.4s0.5-0.8,1-1.1c0.4-0.3,0.9-0.5,1.5-0.7s1.2-0.3,1.9-0.3c0.5,0,1,0,1.4,0.1
			c0.5,0.1,0.9,0.2,1.2,0.4v-0.6c0-0.7-0.2-1.3-0.6-1.7c-0.4-0.4-1-0.6-1.8-0.6c-0.6,0-1.1,0.1-1.7,0.3c-0.6,0.2-1.1,0.5-1.7,0.9
			l-0.8-1.8c1.4-0.9,2.9-1.4,4.5-1.4s2.8,0.4,3.7,1.1c0.9,0.8,1.3,1.9,1.3,3.3v3.4c0,0.3,0.1,0.5,0.2,0.6c0.1,0.1,0.3,0.2,0.5,0.2
			v2.4c-0.5,0.1-0.9,0.2-1.2,0.2c-0.5,0-0.9-0.1-1.2-0.4c-0.3-0.2-0.5-0.5-0.5-0.9l-0.1-0.6c-0.5,0.6-1.1,1.1-1.8,1.5
			C-138.9,218.9-139.7,219-140.4,219"/>
		<path class="st0" d="M-124.2,210.3c-0.8,0-1.6,0.2-2.3,0.5c-0.7,0.3-1.1,0.8-1.4,1.4v6.6h-2.8v-10.9h2.6v2.3
			c0.2-0.4,0.4-0.7,0.7-1c0.3-0.3,0.5-0.6,0.8-0.8s0.6-0.4,0.9-0.5s0.6-0.2,0.9-0.2h0.3c0.1,0,0.2,0,0.2,0L-124.2,210.3
			L-124.2,210.3z"/>
		<path class="st0" d="M-116.7,216.6c0.3,0,0.6-0.1,0.9-0.2c0.3-0.1,0.5-0.2,0.8-0.4c0.2-0.2,0.5-0.4,0.6-0.6
			c0.2-0.2,0.3-0.5,0.4-0.7v-2.6c-0.2-0.6-0.6-1.1-1.2-1.5c-0.5-0.4-1.1-0.6-1.7-0.6c-0.4,0-0.8,0.1-1.2,0.3
			c-0.3,0.2-0.6,0.4-0.9,0.8c-0.2,0.3-0.4,0.7-0.6,1.1c-0.1,0.4-0.2,0.8-0.2,1.2c0,0.5,0.1,0.9,0.2,1.2c0.2,0.4,0.4,0.7,0.6,1
			s0.6,0.5,0.9,0.7C-117.5,216.6-117.1,216.6-116.7,216.6 M-117.7,218.9c-0.7,0-1.4-0.2-2-0.4c-0.6-0.3-1.1-0.7-1.5-1.2
			s-0.8-1.1-1-1.8s-0.4-1.4-0.4-2.1c0-0.8,0.1-1.5,0.4-2.2c0.2-0.7,0.6-1.3,1-1.8s1-0.9,1.6-1.2s1.3-0.4,2.1-0.4
			c0.8,0,1.6,0.2,2.2,0.6c0.6,0.4,1.2,0.9,1.6,1.5V208h2.4v10.4c0,0.8-0.2,1.5-0.5,2.2c-0.3,0.6-0.7,1.2-1.3,1.6
			c-0.5,0.4-1.2,0.8-1.9,1c-0.7,0.2-1.5,0.4-2.4,0.4c-1.2,0-2.2-0.2-3-0.6c-0.8-0.4-1.5-1-2.1-1.7l1.5-1.5c0.4,0.5,0.9,0.9,1.6,1.2
			c0.6,0.3,1.3,0.4,2,0.4c0.4,0,0.8-0.1,1.2-0.2c0.4-0.1,0.8-0.3,1.1-0.5c0.3-0.2,0.5-0.6,0.7-1s0.3-0.8,0.3-1.4v-1.4
			c-0.4,0.6-0.9,1.1-1.5,1.4C-116.2,218.7-116.9,218.9-117.7,218.9"/>
		<path class="st0" d="M-100,212.4c-0.1-0.8-0.4-1.5-0.9-2s-1.2-0.7-2-0.7c-0.4,0-0.7,0.1-1.1,0.2c-0.3,0.1-0.6,0.3-0.9,0.5
			c-0.2,0.2-0.5,0.5-0.6,0.8s-0.3,0.7-0.3,1.1L-100,212.4L-100,212.4z M-102.9,219c-0.9,0-1.7-0.2-2.4-0.5c-0.7-0.3-1.3-0.7-1.8-1.2
			s-0.9-1.1-1.2-1.8c-0.3-0.7-0.4-1.4-0.4-2.1c0-0.8,0.1-1.5,0.4-2.2s0.6-1.3,1.1-1.8s1.1-0.9,1.8-1.2c0.7-0.3,1.5-0.5,2.4-0.5
			s1.7,0.2,2.4,0.5c0.7,0.3,1.3,0.7,1.8,1.2s0.9,1.1,1.1,1.8c0.3,0.7,0.4,1.4,0.4,2.1c0,0.2,0,0.4,0,0.5c0,0.2,0,0.3-0.1,0.4h-8.4
			c0,0.4,0.2,0.8,0.3,1.1c0.2,0.3,0.4,0.6,0.6,0.8c0.3,0.2,0.6,0.4,0.9,0.5s0.7,0.2,1,0.2c0.6,0,1.1-0.1,1.6-0.4
			c0.5-0.3,0.8-0.6,1-1.1l2.4,0.7c-0.4,0.8-1.1,1.5-1.9,2.1C-100.6,218.8-101.6,219-102.9,219"/>
	</g>
</g>
</svg>
