<?xml version="1.0" encoding="utf-8"?>
<!-- Generator: Adobe Illustrator 19.1.0, SVG Export Plug-In . SVG Version: 6.00 Build 0)  -->
<svg version="1.1" id="Layer_2" xmlns="http://www.w3.org/2000/svg" xmlns:xlink="http://www.w3.org/1999/xlink" x="0px" y="0px"
	 viewBox="-400 343.1 102.7 20" style="enable-background:new -400 343.1 102.7 20;" xml:space="preserve">
<style type="text/css">
	.st0{fill:#424242;}
</style>
<g>
	<g>
		<path class="st0" d="M-366,356.5c-2.9,0-5.3-2.4-5.3-5.3c0-2.9,2.4-5.3,5.3-5.3c2,0,3.7,1.1,4.6,2.7l2.2-1.2c-1.3-2.4-3.8-4-6.7-4
			c-4.3,0-7.8,3.5-7.8,7.8c0,4.3,3.5,7.8,7.8,7.8c2.7,0,5.1-1.4,6.5-3.5l-2.1-1.3C-362.5,355.6-364.2,356.5-366,356.5z"/>
	</g>
</g>
<g>
	<path class="st0" d="M-398.6,351.6h4.8c0.4,0,0.8-0.1,1.2-0.3c0.4-0.2,0.7-0.4,0.9-0.8c0.2-0.3,0.5-0.7,0.6-1.1s0.2-0.8,0.2-1.3
		c0-0.4-0.1-0.9-0.2-1.3c-0.2-0.4-0.4-0.8-0.6-1.1c-0.3-0.3-0.6-0.5-1-0.7c-0.4-0.2-0.8-0.3-1.2-0.3h-4.7V351.6z M-400,358.3v-14.8
		h6.2c0.6,0,1.2,0.1,1.8,0.4c0.5,0.3,1,0.6,1.4,1.1s0.7,0.9,0.9,1.5s0.3,1.1,0.3,1.7c0,0.5-0.1,1.1-0.2,1.6
		c-0.2,0.5-0.4,0.9-0.7,1.3c-0.3,0.4-0.6,0.7-1,1c-0.4,0.3-0.8,0.5-1.4,0.5l3.6,5.7h-1.6l-3.5-5.5h-4.4v5.5H-400L-400,358.3z"/>
	<path class="st0" d="M-377.4,352.3c0-0.6-0.2-1.1-0.4-1.6s-0.5-0.9-0.9-1.2c-0.4-0.4-0.8-0.6-1.2-0.8c-0.5-0.2-1-0.3-1.5-0.3
		s-1,0.1-1.5,0.3c-0.5,0.2-0.9,0.5-1.2,0.8c-0.4,0.3-0.6,0.8-0.8,1.2c-0.2,0.5-0.3,1-0.4,1.6H-377.4z M-381.4,358.5
		c-0.8,0-1.5-0.2-2.2-0.5c-0.7-0.3-1.2-0.7-1.7-1.2s-0.9-1.1-1.1-1.8c-0.3-0.7-0.4-1.4-0.4-2.2c0-0.8,0.1-1.5,0.4-2.2
		c0.3-0.7,0.6-1.3,1.1-1.8s1.1-0.9,1.7-1.2c0.7-0.3,1.4-0.5,2.2-0.5s1.5,0.2,2.2,0.5c0.7,0.3,1.2,0.7,1.7,1.2s0.8,1.1,1.1,1.8
		s0.4,1.4,0.4,2.1v0.3c0,0.1,0,0.2,0,0.2h-9.3c0,0.6,0.2,1.1,0.4,1.6c0.2,0.5,0.5,0.9,0.9,1.3c0.4,0.4,0.8,0.6,1.2,0.8
		c0.5,0.2,1,0.3,1.5,0.3c0.3,0,0.7,0,1-0.2c0.3-0.1,0.7-0.2,1-0.4s0.6-0.4,0.8-0.6c0.2-0.2,0.4-0.5,0.5-0.8l1.2,0.3
		c-0.2,0.4-0.4,0.8-0.7,1.1c-0.3,0.3-0.7,0.6-1.1,0.9c-0.4,0.2-0.8,0.4-1.3,0.6C-380.4,358.5-380.9,358.5-381.4,358.5"/>
	<g>
		<path class="st0" d="M-346.7,358.3h-2.8v-6.1c0-0.9-0.2-1.5-0.5-1.9c-0.3-0.4-0.8-0.6-1.4-0.6c-0.2,0-0.5,0.1-0.8,0.2
			c-0.3,0.1-0.5,0.3-0.8,0.5c-0.2,0.2-0.5,0.4-0.7,0.7c-0.2,0.3-0.4,0.6-0.5,0.9v6.4h-2.8v-15.3h2.8v6.3c0.4-0.7,0.9-1.3,1.6-1.6
			c0.7-0.4,1.4-0.6,2.3-0.6c0.7,0,1.3,0.1,1.7,0.4c0.4,0.2,0.8,0.6,1,1c0.2,0.4,0.4,0.9,0.5,1.4c0.1,0.5,0.2,1,0.2,1.6L-346.7,358.3
			L-346.7,358.3z"/>
		<path class="st0" d="M-339.7,356.5c0.5,0,0.9-0.1,1.3-0.2c0.4-0.2,0.8-0.4,1-0.7c0.3-0.2,0.5-0.5,0.5-0.8v-1.2
			c-0.3-0.1-0.7-0.2-1.1-0.3c-0.4-0.1-0.8-0.1-1.1-0.1c-0.7,0-1.3,0.2-1.8,0.5c-0.5,0.3-0.7,0.7-0.7,1.2s0.2,0.9,0.5,1.2
			C-340.7,356.3-340.2,356.5-339.7,356.5 M-340.5,358.5c-0.5,0-1-0.1-1.5-0.3c-0.5-0.2-0.8-0.4-1.2-0.7c-0.3-0.3-0.6-0.7-0.8-1.1
			s-0.3-0.9-0.3-1.4s0.1-1,0.3-1.4s0.5-0.8,1-1.1c0.4-0.3,0.9-0.5,1.5-0.7c0.6-0.2,1.2-0.3,1.9-0.3c0.5,0,1,0,1.4,0.1
			c0.5,0.1,0.9,0.2,1.2,0.4v-0.6c0-0.7-0.2-1.3-0.6-1.7c-0.4-0.4-1-0.6-1.8-0.6c-0.6,0-1.1,0.1-1.7,0.3c-0.6,0.2-1.1,0.5-1.7,0.9
			l-0.8-1.8c1.4-0.9,2.9-1.4,4.5-1.4c1.6,0,2.8,0.4,3.7,1.1c0.9,0.8,1.3,1.9,1.3,3.3v3.4c0,0.3,0.1,0.5,0.2,0.6
			c0.1,0.1,0.3,0.2,0.5,0.2v2.4c-0.5,0.1-0.9,0.2-1.2,0.2c-0.5,0-0.9-0.1-1.2-0.4c-0.3-0.2-0.5-0.5-0.5-0.9l-0.1-0.6
			c-0.5,0.6-1.1,1.1-1.8,1.5C-339,358.4-339.7,358.5-340.5,358.5"/>
		<path class="st0" d="M-324.2,349.8c-0.8,0-1.6,0.2-2.3,0.5c-0.7,0.3-1.1,0.8-1.4,1.4v6.6h-2.8v-10.9h2.6v2.3
			c0.2-0.4,0.4-0.7,0.7-1c0.3-0.3,0.5-0.6,0.8-0.8c0.3-0.2,0.6-0.4,0.9-0.5c0.3-0.1,0.6-0.2,0.9-0.2h0.3c0.1,0,0.2,0,0.2,0
			L-324.2,349.8L-324.2,349.8z"/>
		<path class="st0" d="M-316.7,356.1c0.3,0,0.6-0.1,0.9-0.2c0.3-0.1,0.5-0.2,0.8-0.4c0.2-0.2,0.5-0.4,0.6-0.6
			c0.2-0.2,0.3-0.5,0.4-0.7v-2.6c-0.2-0.6-0.6-1.1-1.2-1.5c-0.5-0.4-1.1-0.6-1.7-0.6c-0.4,0-0.8,0.1-1.2,0.3
			c-0.3,0.2-0.6,0.4-0.9,0.8c-0.2,0.3-0.4,0.7-0.6,1.1c-0.1,0.4-0.2,0.8-0.2,1.2c0,0.5,0.1,0.9,0.2,1.2c0.2,0.4,0.4,0.7,0.6,1
			c0.2,0.3,0.6,0.5,0.9,0.7C-317.6,356.1-317.2,356.1-316.7,356.1 M-317.7,358.4c-0.7,0-1.4-0.2-2-0.4c-0.6-0.3-1.1-0.7-1.5-1.2
			c-0.4-0.5-0.8-1.1-1-1.8c-0.2-0.7-0.4-1.4-0.4-2.1c0-0.8,0.1-1.5,0.4-2.2c0.2-0.7,0.6-1.3,1-1.8c0.4-0.5,1-0.9,1.6-1.2
			s1.3-0.4,2.1-0.4s1.6,0.2,2.2,0.6c0.6,0.4,1.2,0.9,1.6,1.5v-1.9h2.4v10.4c0,0.8-0.2,1.5-0.5,2.2c-0.3,0.6-0.7,1.2-1.3,1.6
			c-0.5,0.4-1.2,0.8-1.9,1c-0.7,0.2-1.5,0.4-2.4,0.4c-1.2,0-2.2-0.2-3-0.6c-0.8-0.4-1.5-1-2.1-1.7l1.5-1.5c0.4,0.5,0.9,0.9,1.6,1.2
			c0.6,0.3,1.3,0.4,2,0.4c0.4,0,0.8-0.1,1.2-0.2c0.4-0.1,0.8-0.3,1.1-0.5c0.3-0.2,0.5-0.6,0.7-1c0.2-0.4,0.3-0.8,0.3-1.4v-1.4
			c-0.4,0.6-0.9,1.1-1.5,1.4C-316.2,358.2-316.9,358.4-317.7,358.4"/>
		<path class="st0" d="M-300,351.9c-0.1-0.8-0.4-1.5-0.9-2s-1.2-0.7-2-0.7c-0.4,0-0.7,0.1-1.1,0.2c-0.3,0.1-0.6,0.3-0.9,0.5
			c-0.2,0.2-0.5,0.5-0.6,0.8s-0.3,0.7-0.3,1.1h5.8V351.9z M-302.9,358.5c-0.9,0-1.7-0.2-2.4-0.5c-0.7-0.3-1.3-0.7-1.8-1.2
			s-0.9-1.1-1.2-1.8c-0.3-0.7-0.4-1.4-0.4-2.1c0-0.8,0.1-1.5,0.4-2.2c0.3-0.7,0.6-1.3,1.1-1.8s1.1-0.9,1.8-1.2
			c0.7-0.3,1.5-0.5,2.4-0.5s1.7,0.2,2.4,0.5c0.7,0.3,1.3,0.7,1.8,1.2s0.9,1.1,1.1,1.8c0.3,0.7,0.4,1.4,0.4,2.1c0,0.2,0,0.4,0,0.5
			c0,0.2,0,0.3-0.1,0.4h-8.4c0,0.4,0.2,0.8,0.3,1.1c0.2,0.3,0.4,0.6,0.6,0.8c0.3,0.2,0.6,0.4,0.9,0.5c0.3,0.1,0.7,0.2,1,0.2
			c0.6,0,1.1-0.1,1.6-0.4c0.5-0.3,0.8-0.6,1-1.1l2.4,0.7c-0.4,0.8-1.1,1.5-1.9,2.1C-300.6,358.3-301.6,358.5-302.9,358.5"/>
	</g>
</g>
</svg>
