<?xml version="1.0" encoding="utf-8"?>
<!-- Generator: Adobe Illustrator 19.1.0, SVG Export Plug-In . SVG Version: 6.00 Build 0)  -->
<svg version="1.1" id="Layer_2" xmlns="http://www.w3.org/2000/svg" xmlns:xlink="http://www.w3.org/1999/xlink" x="0px" y="0px"
	 viewBox="-482 339.9 17.7 20.9" style="enable-background:new -482 339.9 17.7 20.9;" xml:space="preserve">
<style type="text/css">
	.st0{fill:#424242;}
</style>
<path class="st0" d="M-466.2,347.1l-5.3-3.1h-0.1h-0.1l-5.3,3.1c0,0.1-0.1,0.1-0.1,0.2v6.1c0,0.1,0,0.2,0.1,0.2l5.4,3.1
	c0,0,0.1,0,0.2,0l5.3-3.1c0.1-0.1,0.2-0.1,0.2-0.2v-6.1C-465.9,347.2-466,347.1-466.2,347.1L-466.2,347.1z M-471.6,344.5l1.7,1
	l-4.9,2.8l-1.7-1L-471.6,344.5z M-471.8,356.3l-4.9-2.9h-0.2v-5.7l1.6,1v2l0.3-0.1l0.5,0.5h0.4l0.2,0.2v-1.9l2.1,1.2L-471.8,356.3
	L-471.8,356.3z M-473.7,348.9l4.9-2.8l2.1,1.2l-4.9,2.8L-473.7,348.9z M-466.6,353.3l-4.9,2.9v-5.7l4.9-2.9V353.3z"/>
<path class="st0" d="M-465,357.2c-3.7,3.7-9.6,3.7-13.3,0c-3.7-3.7-3.7-9.6,0-13.3c2.9-2.9,7.4-3.6,11-1.7l-0.9,1.5c0,0,0,0,0.1,0.1
	l0,0l0,0l3.6-0.5c0.1,0,0.1,0,0.1,0c0-0.1,0-0.1,0-0.1l-1.3-3.3h-0.1c-0.1,0-0.1,0-0.1,0l-0.9,1.5c-4-2.1-9-1.4-12.2,1.8
	c-4,4-4,10.6,0,14.6c2,2,4.7,3,7.3,3c2.7,0,5.3-1,7.4-2.9L-465,357.2z M-464.5,343.1L-464.5,343.1l-0.7-1.6L-464.5,343.1z"/>
</svg>
