<?xml version="1.0" encoding="UTF-8" standalone="no"?>
<svg width="103px" height="21px" viewBox="0 0 103 21" version="1.1" xmlns="http://www.w3.org/2000/svg" xmlns:xlink="http://www.w3.org/1999/xlink">
    <!-- Generator: Sketch 3.7.2 (28276) - http://www.bohemiancoding.com/sketch -->
    <title>navbar__brand--mobile--gray-darker</title>
    <desc>Created with Sketch.</desc>
    <defs></defs>
    <g id="Page-1" stroke="none" stroke-width="1" fill="none" fill-rule="evenodd">
        <g id="Artboard" fill="#424242">
            <g id="navbar__brand--mobile--gray-darker">
                <path d="M43.3411125,0.500414634 L46.1849425,0.500414634 L46.1849425,5.32759756 C46.826375,4.45584146 48.1733575,4.05171951 49.221125,4.05171951 C50.5037325,4.05171951 51.872345,4.66840244 52.70613,5.62543902 C53.7966425,6.85880488 53.8393875,8.26221951 53.8393875,9.83568293 L53.8393875,16.2150732 L50.9955575,16.2150732 L50.9955575,10.4523659 C50.9955575,8.68759756 50.803205,6.81603659 48.5796925,6.81603659 C47.7670225,6.81603659 47.082845,7.15639024 46.6340225,7.83684146 C46.16357,8.58106098 46.1849425,9.66563415 46.1849425,10.494878 L46.1849425,16.2150732 L43.3411125,16.2150732 L43.3411125,0.500414634" id="Fill-1"></path>
                <path d="M62.049775,6.81603659 C59.95424,6.79503659 58.5006525,8.3685 58.5006525,10.4311098 C58.5006525,12.366439 60.0827325,13.854878 62.0072875,13.833622 C64.05982,13.854878 65.47092,12.3236707 65.47092,10.3035732 C65.47092,8.3259878 64.05982,6.79503659 62.049775,6.81603659 L62.049775,6.81603659 Z M68.164885,16.2150732 L65.55641,16.2150732 L65.55641,14.6203537 L65.513665,14.6203537 C64.65825,15.8324634 62.9904225,16.5981951 61.4938325,16.5981951 C59.655025,16.5981951 58.158435,15.8324634 57.13204,14.6203537 C56.1913925,13.4932683 55.6568225,11.9623171 55.6568225,10.3248293 C55.6568225,8.68759756 56.08453,7.32643902 57.174785,6.09307317 C58.37216,4.71091463 59.847635,4.05171951 61.5793225,4.05171951 C63.2046625,4.05171951 64.615505,4.77468293 65.55641,6.09307317 L65.55641,4.43432927 L68.164885,4.43432927 L68.164885,16.2150732 L68.164885,16.2150732 Z" id="Fill-2"></path>
                <path d="M70.456635,4.43432927 L73.0437375,4.43432927 L73.0437375,5.49764634 L73.0864825,5.49764634 C73.7065425,4.49835366 74.4548375,4.05171951 75.6305825,4.05171951 L75.844565,4.05171951 L75.844565,6.79503659 C75.26725,6.79503659 74.5830725,6.98634146 74.1128775,7.34769512 C73.3002075,8.00714634 73.2790925,8.87890244 73.3002075,9.85693902 L73.3002075,16.2150732 L70.456635,16.2150732 L70.456635,4.43432927" id="Fill-3"></path>
                <path d="M82.5877175,6.81603659 C81.6684425,6.81603659 80.791655,7.22015854 80.171595,7.85809756 C79.50879,8.53854878 79.2309475,9.32553659 79.2309475,10.261061 C79.2309475,12.3024146 80.7486525,13.833622 82.8017,13.833622 C84.6832525,13.833622 86.1370975,12.174878 86.1370975,10.3675976 C86.1370975,8.3472439 84.5977625,6.81603659 82.5877175,6.81603659 L82.5877175,6.81603659 Z M88.8099475,4.43432927 L88.8099475,14.4290488 C88.8099475,16.2578415 88.424985,17.64 87.1418625,18.9796463 C85.923115,20.2342683 84.2125425,21 82.43811,21 C79.9364975,21 77.4346275,19.4903049 76.558355,17.1085976 L79.7866325,17.1085976 C80.428065,17.7887927 81.518835,18.2354268 82.43811,18.2354268 C83.3787575,18.2354268 84.40541,17.8953293 85.0895875,17.2571341 C85.9444875,16.4704024 86.0516075,15.6621585 86.2225875,14.6203537 L86.179585,14.5780976 C85.239195,15.7899512 84.02019,16.5981951 82.395365,16.5981951 C80.8985175,16.5981951 79.1882025,15.8112073 78.16155,14.7478902 C76.9860625,13.5357805 76.387375,11.8347805 76.387375,10.1545244 C76.387375,8.60257317 76.9860625,7.15639024 77.9691975,6.05056098 C79.0810825,4.83845122 80.6847925,4.05171951 82.4594825,4.05171951 C83.9988175,4.05171951 85.45292,4.68965854 86.15847,6.05056098 L86.201215,6.05056098 L86.201215,4.43432927 L88.8099475,4.43432927 L88.8099475,4.43432927 Z" id="Fill-4"></path>
                <path d="M100.12733,9.07020732 C99.657135,7.66679268 98.3528975,6.81603659 96.898795,6.81603659 C95.487695,6.81603659 94.0335925,7.70930488 93.6061425,9.07020732 L100.12733,9.07020732 L100.12733,9.07020732 Z M93.5819375,11.5794512 C94.009645,12.9403537 95.2716525,13.833622 96.7038675,13.833622 C97.77275,13.833622 98.7994025,13.4295 99.3550875,12.8128171 L102.498132,12.8128171 C101.77121,14.917939 99.3126,16.5981951 96.81073,16.5981951 C93.36847,16.5981951 90.567385,13.833622 90.567385,10.4098537 C90.567385,6.92257317 93.3043525,4.05171951 96.853475,4.05171951 C100.231617,4.05171951 102.92584,6.94382927 102.92584,10.2398049 C102.92584,10.686439 102.84035,11.1328171 102.776233,11.5794512 L93.5819375,11.5794512 L93.5819375,11.5794512 Z" id="Fill-5"></path>
                <path d="M22.3203575,9.53784146 C21.9140225,7.47523171 20.0110975,5.838 17.8517025,5.838 C15.649305,5.838 13.703635,7.39020732 13.3186725,9.53784146 L22.3203575,9.53784146 L22.3203575,9.53784146 Z M13.3186725,10.9630244 C13.4041625,13.1744268 15.563815,14.9819634 17.7234675,14.9819634 C19.455155,14.9819634 21.2084725,14.0251829 21.9140225,12.4302073 L23.5604775,12.4302073 C22.748065,14.7694024 20.353315,16.4916585 17.873075,16.4916585 C14.45193,16.4916585 11.7365925,13.8123659 11.7365925,10.4098537 C11.7365925,7.02885366 14.430815,4.32804878 17.83033,4.32804878 C19.6691375,4.32804878 21.35808,5.15754878 22.5340825,6.58221951 C23.624595,7.92186585 23.85995,9.28276829 23.902695,10.9630244 L13.3186725,10.9630244 L13.3186725,10.9630244 Z" id="Fill-10"></path>
                <path d="M41.2393975,6.33687805 L41.2393975,4.9872439 L41.243775,4.9872439 C41.2424875,4.98391463 41.240685,4.98084146 41.2393975,4.9775122 L41.2393975,0.500414634 L39.37072,2.35891463 C37.8579075,0.989560976 35.8092375,0.202829268 33.73868,0.202829268 C29.3344,0.202829268 25.6354125,3.90292683 25.6354125,8.3472439 C25.6354125,12.8343293 29.2913975,16.5981951 33.8244275,16.5981951 C36.8819825,16.5981951 39.9606525,14.7906585 41.1580275,11.941061 L37.7585125,11.941061 C36.6893725,13.0681463 35.3426475,13.7701098 33.781425,13.7701098 C30.959225,13.7701098 28.564475,11.2393537 28.564475,8.45352439 C28.564475,5.51890244 30.873735,3.03091463 33.7600525,3.03091463 C35.0599125,3.03091463 36.358485,3.54797561 37.3264275,4.39207317 L35.3709725,6.33687805 L41.2393975,6.33687805" id="Fill-6"></path>
                <path d="M0,0.500414634 L3.763105,0.500414634 C5.2599525,0.500414634 6.9275225,0.521670732 8.2531325,1.26589024 C9.8568425,2.18041463 10.7122575,3.79639024 10.7122575,5.62543902 C10.7122575,8.19845122 8.6167225,10.2823171 6.0509925,10.3463415 L10.498275,16.2150732 L8.530975,16.2150732 L3.1644175,9.09146341 L3.63487,9.09146341 C4.746755,9.09146341 6.0293625,9.13423171 7.07713,8.66634146 C8.3813675,8.07091463 9.12992,6.87980488 9.12992,5.47639024 C9.12992,4.39181707 8.552605,3.2862439 7.6547025,2.66956098 C6.606935,1.92534146 5.32407,1.92534146 4.08395,1.92534146 L1.5823375,1.92534146 L1.5823375,16.2150732 L0,16.2150732 L0,0.500414634" id="Fill-8"></path>
            </g>
        </g>
    </g>
</svg>