<?xml version="1.0" encoding="UTF-8" standalone="no"?>
<svg width="20px" height="21px" viewBox="0 0 20 21" version="1.1" xmlns="http://www.w3.org/2000/svg" xmlns:xlink="http://www.w3.org/1999/xlink">
    <!-- Generator: Sketch 3.7.2 (28276) - http://www.bohemiancoding.com/sketch -->
    <title>navbar__brand--shopify</title>
    <desc>Created with Sketch.</desc>
    <defs></defs>
    <g id="Page-1" stroke="none" stroke-width="1" fill="none" fill-rule="evenodd">
        <g id="Artboard" fill="#7AB55C">
            <g id="navbar__brand--shopify">
                <path d="M19.4228751,7.73866154 L19.4228751,6.03604615 L19.4286444,6.03604615 C19.4267213,6.03184615 19.4244777,6.02796923 19.4228751,6.02376923 L19.4228751,0.375738462 L17.0968609,2.72030769 C15.2138055,0.992815385 12.6640684,0 10.0867665,0 C4.60427077,0 0,4.66813846 0,10.2748154 C0,15.9354462 4.55106444,20.6837077 10.1931792,20.6837077 C13.9990345,20.6837077 17.8311724,18.4034308 19.3219112,14.8085538 L15.0900848,14.8085538 C13.7592855,16.2304154 12.0829655,17.1159692 10.1399729,17.1159692 C6.62707292,17.1159692 3.64591577,13.9233231 3.64591577,10.4088923 C3.64591577,6.70675385 6.52066026,3.56806154 10.1133697,3.56806154 C11.7310345,3.56806154 13.3474172,4.22035385 14.5522521,5.28521538 L12.1182227,7.73866154 L19.4228751,7.73866154 L19.4228751,7.73866154 Z" id="ReCharge-C"></path>
            </g>
        </g>
    </g>
</svg>