<?xml version="1.0" encoding="utf-8"?>
<!-- Generator: Adobe Illustrator 19.1.0, SVG Export Plug-In . SVG Version: 6.00 Build 0)  -->
<svg version="1.1" id="Layer_2" xmlns="http://www.w3.org/2000/svg" xmlns:xlink="http://www.w3.org/1999/xlink" x="0px" y="0px"
	 viewBox="-241 170 20 21" style="enable-background:new -241 170 20 21;" xml:space="preserve">
<style type="text/css">
	.st0{fill:#FFFFFF;}
</style>
<g>
	<g>
		<path class="st0" d="M-230.6,186.9C-230.6,186.9-230.7,186.9-230.6,186.9l-5.4-3.1c-0.1,0-0.1-0.1-0.1-0.2v-6.1
			c0-0.1,0.1-0.1,0.1-0.2l0,0l0,0l0,0l0,0l5.3-3.1h0.1h0.1l5.3,3.1h0.1c0.1,0,0.2,0.1,0.2,0.2v6.1c0,0.1-0.1,0.1-0.2,0.2l-5.3,3.1
			C-230.5,186.9-230.6,186.9-230.6,186.9z M-230.4,180.7v5.7l4.9-2.9v-5.7L-230.4,180.7z M-235.6,183.6l4.9,2.9v-5.7l-2.1-1.2v1.9
			l-0.2-0.2h-0.4l-0.5-0.5l-0.3,0.1v-2l-1.6-1v5.7H-235.6z M-232.7,179.1l2.1,1.2l4.9-2.8l-2.1-1.2L-232.7,179.1z M-235.5,177.5
			l1.7,1l4.9-2.8l-1.7-1L-235.5,177.5z"/>
		<path class="st0" d="M-230.7,191c-2.6,0-5.3-1-7.3-3c-4-4-4-10.6,0-14.6c3.5-3.5,9.1-4,13.2-1.2l-0.5,0.8c-3.7-2.6-8.8-2.1-12,1.1
			c-3.7,3.7-3.7,9.6,0,13.3s9.6,3.7,13.3,0l0.7,0.7C-225.3,190-228,191-230.7,191z"/>
		<g>
			<g>
				<polygon class="st0" points="-227.1,173.9 -224.8,170.1 -223.5,173.4 				"/>
				<path class="st0" d="M-227.1,174C-227.1,174-227.1,173.9-227.1,174c-0.1-0.1-0.1-0.1-0.1-0.1l2.3-3.8c0,0,0,0,0.1,0h0.1l1.3,3.3
					c0,0,0,0,0,0.1c0,0,0,0-0.1,0L-227.1,174L-227.1,174z M-224.8,170.2l-2.1,3.5l3.4-0.4L-224.8,170.2z"/>
			</g>
		</g>
	</g>
</g>
</svg>
