<svg width="26" height="30" viewBox="0 0 26 30" xmlns="http://www.w3.org/2000/svg"><title>RCP_mark_KO-white_marketingNav</title><g fill="#FFF" fill-rule="evenodd"><path d="M14.88 24.103c-.048 0-.095-.012-.138-.034l-7.6-4.38c-.093-.047-.154-.14-.162-.242V10.7c.016-.1.075-.187.16-.24l.047-.012H7.2c.007 0 .016-.005.022-.01l7.52-4.346c.086-.046.19-.046.276 0l7.555 4.356.104.012c.08.057.218.138.218.24v8.748c0 .092-.126.196-.218.242l-7.613 4.38c-.06.02-.12.033-.184.033zm.242-8.896v8.138l7.037-4.058V11.15l-7.038 4.057zM7.716 19.3l7.038 4.056v-8.138l-2.967-1.666v2.735l-.22-.32h-.574l-.678-.69-.39.16V12.61l-2.21-1.46v8.15zm4.15-6.31l3.014 1.746 6.992-4.035-3.013-1.746-6.993 4.035zm-3.977-2.3l2.47 1.425 6.992-4.035-2.472-1.425-6.99 4.035z"/><path d="M14.8 29.885C8.456 29.882 2.825 25.823.82 19.807-1.185 13.79.886 7.167 5.96 3.363c5.076-3.805 12.018-3.937 17.234-.33l-.782 1.128C16.596.143 8.655 1.346 4.292 6.907-.07 12.468.654 20.463 5.945 25.15c5.292 4.688 13.32 4.445 18.32-.552l.976.965c-2.765 2.774-6.523 4.33-10.44 4.322z"/><path d="M19.882 5.53l3.29-5.427 1.862 4.748"/><path d="M19.882 5.632c-.035-.003-.068-.02-.092-.046-.023-.035-.023-.08 0-.115L23.08.058c.024-.03.063-.048.103-.043.04.005.075.03.092.066l1.863 4.748c.014.03.01.066-.012.092-.017.028-.048.045-.08.046l-5.152.666h-.012zM23.148.345l-3.06 5.034 4.797-.633L23.148.345z"/></g></svg>