<svg width="135" height="39" viewBox="0 0 135 39" xmlns="http://www.w3.org/2000/svg" xmlns:xlink="http://www.w3.org/1999/xlink"><title>Group</title><defs><path id="a" d="M7.502.063H.584v7.264h6.918V.063z"/></defs><g fill="none" fill-rule="evenodd"><path d="M10.08 14.173l3.193 1.843 9.02-5.21L19.1 8.962l-9.02 5.21zm5.13 2.965l3.89 2.245 9.02-5.21-3.886-2.245-9.023 5.21zm-5.35 8.136l9.068 5.233V20l-3.82-2.142v3.53l-.28-.415h-.737l-.87-.884-.496.205v-3.647l-2.865-1.88v10.506zM19.404 20v10.507l9.07-5.233V14.77L19.404 20zM19.1 31.48c-.06 0-.124-.014-.176-.045L9.117 25.79c-.113-.066-.212-.186-.212-.31V14.195c0-.124.098-.24.208-.306l.055-.023.013-.004c.006-.003.017-.007.025-.008l.01-.004 9.706-5.606c.056-.032.12-.05.18-.05.063 0 .125.018.178.05l9.74 5.626.138.02c.11.067.274.18.274.305V25.48c0 .124-.165.244-.278.31l-9.824 5.643c-.052.03-.164.045-.227.045z" fill="#424242"/><path d="M19 38.937c-4.867 0-9.736-1.857-13.44-5.563-7.413-7.412-7.413-19.47 0-26.88 6.504-6.51 16.707-7.43 24.256-2.197l-1.01 1.457C21.962 1.01 12.71 1.846 6.812 7.744c-6.723 6.723-6.723 17.658 0 24.38 6.72 6.72 17.657 6.72 24.377 0l1.252 1.25c-3.706 3.706-8.575 5.563-13.44 5.563" fill="#424242"/><path fill="#424242" d="M25.55 7.506L29.783.52l2.407 6.117"/><g transform="translate(24.828 .316)"><mask id="b" fill="#fff"><use xlink:href="#a"/></mask><path d="M4.93.513L.988 7.015l6.182-.808L4.93.513zM.722 7.327c-.047 0-.09-.023-.116-.062-.03-.044-.03-.102-.003-.146L4.84.132c.026-.046.083-.08.128-.067.052.004.098.04.117.087L7.492 6.27c.016.04.012.085-.01.12-.02.038-.058.063-.1.068L.74 7.326H.722z" fill="#FEFEFE" mask="url(#b)"/></g><path d="M40.52 19.984h4.62c.412 0 .787-.09 1.127-.27.34-.18.627-.42.866-.726.238-.305.425-.65.557-1.036.132-.385.2-.79.2-1.215 0-.425-.077-.833-.23-1.225-.152-.39-.358-.733-.617-1.025-.26-.292-.564-.524-.916-.698-.35-.173-.72-.26-1.105-.26H40.52v6.454zm-1.394 6.453V12.295H45.1c.612 0 1.174.13 1.684.39.512.257.953.597 1.324 1.014.372.42.66.893.868 1.424.205.53.31 1.07.31 1.613 0 .518-.08 1.013-.232 1.484-.152.473-.364.897-.636 1.275-.273.38-.602.698-.986.956-.386.26-.816.437-1.295.53l3.465 5.457H48.03l-3.328-5.22H40.52v5.22h-1.394zM59.8 20.7c-.04-.556-.17-1.064-.39-1.522-.216-.458-.496-.854-.834-1.186-.34-.33-.73-.59-1.176-.777-.445-.186-.92-.278-1.423-.278-.506 0-.983.092-1.435.278-.452.187-.846.446-1.184.777-.34.332-.61.73-.817 1.196-.206.465-.327.968-.37 1.513h7.63zm-3.823 5.936c-.757 0-1.45-.142-2.083-.428-.63-.285-1.178-.677-1.643-1.175-.463-.498-.825-1.073-1.084-1.723-.258-.65-.39-1.347-.39-2.09 0-.732.132-1.418.39-2.063.26-.644.618-1.208 1.076-1.693.458-.485 1.005-.87 1.644-1.155.636-.286 1.327-.43 2.07-.43.758 0 1.45.144 2.082.43.63.285 1.17.674 1.623 1.165.452.49.804 1.055 1.056 1.692.253.637.378 1.315.378 2.032v.317c0 .108-.005.18-.02.22h-8.882c.04.557.168 1.07.39 1.543.217.472.5.88.845 1.225.344.345.74.615 1.184.807.447.193.92.288 1.426.288.33 0 .664-.045.996-.14.33-.092.637-.217.916-.377.28-.16.53-.355.757-.588.225-.23.4-.488.517-.767l1.176.32c-.16.384-.385.733-.678 1.045-.292.31-.63.584-1.015.816-.386.23-.81.412-1.274.537-.465.126-.95.19-1.453.19zM89.178 26.506h-2.76v-5.924c0-.825-.043-1.432-.348-1.823-.306-.393-.683-.59-1.24-.59-.24 0-.465.055-.73.16-.266.107-.505.256-.743.45-.24.19-.448.42-.648.686-.2.265-.43.558-.43.876v6.164h-2.758V11.334h2.76v6.6c0-.68.9-1.2 1.56-1.566.656-.364 1.38-.547 2.178-.547.678 0 1.228.118 1.653.35.425.232.757.54.996.925.237.387.34.824.432 1.315.093.492.076.997.076 1.514v6.582zM96.006 24.685c.45 0 .88-.08 1.284-.24.406-.16.8-.37 1.025-.638.292-.225.517-.477.517-.756v-1.194c0-.12-.743-.216-1.113-.29-.375-.072-.772-.108-1.117-.108-.69 0-1.274.156-1.713.468-.44.312-.666.708-.666 1.185 0 .453.167.828.512 1.126.344.3.765.45 1.27.45m-.757 1.95c-.506 0-.976-.082-1.415-.25-.44-.165-.817-.397-1.135-.696-.32-.3-.567-.647-.746-1.045-.18-.4-.27-.838-.27-1.315 0-.49.11-.946.33-1.364.218-.418.523-.774.915-1.066.39-.29.858-.522 1.403-.687.545-.166 1.142-.248 1.793-.248.463 0 .997.04 1.443.118.444.08 1.262.193 1.262.34v-.598c0-.69-.274-1.222-.666-1.594-.392-.37-1.01-.556-1.782-.556-.557 0-1.122.1-1.654.3-.53.197-1.084.49-1.643.875l-.82-1.694c1.34-.89 2.786-1.335 4.34-1.335 1.5 0 2.787.37 3.617 1.107.83.737 1.367 1.802 1.367 3.196v3.247c0 .28-.267.48-.168.597.1.12.17.187.17.2v2.27c0 .093-.65.14-.98.14-.505 0-.798-.113-1.068-.34-.273-.226-.393-.523-.46-.896l-.035-.575c-.466.61-1.018 1.074-1.683 1.393-.663.318-1.36.478-2.118.478M109.867 18.31c0 .014-1.14.17-1.778.468-.638.3-.98.748-.98 1.345v6.383h-2.76V15.472h2.76v2.76c0-.36.08-.68.332-.967.253-.285.363-.534.656-.746.29-.214.506-.57.805-.684.298-.113.506-.364.785-.364h.328c.073 0-.15.396-.15.408v2.43zM116.74 24.365c.29 0 .57-.045.835-.14.266-.09.51-.218.738-.377.224-.16.53-.345.704-.557.173-.213.505-.438.505-.676v-2.49c0-.61-.72-1.102-1.233-1.474-.51-.373-1.1-.558-1.657-.558-.413 0-.81.09-1.143.268-.332.18-.63.42-.868.718-.24.298-.43.64-.555 1.025-.127.385-.193.784-.193 1.195 0 .426.072.825.218 1.196.146.372.346.696.605.976.26.28.562.497.907.657.346.158.724.238 1.135.238m-.898 2.13c-.703 0-1.34-.138-1.912-.417-.57-.278-1.066-.66-1.484-1.144-.418-.484-.74-1.046-.965-1.684-.225-.636-.338-1.314-.338-2.03 0-.758.12-1.462.358-2.113.24-.65.57-1.22.996-1.713.425-.49.937-.876 1.534-1.154.597-.28 1.255-.418 1.972-.418.81 0 1.458.182 2.068.548.612.364 1.452.852 1.452 1.463v-2.36h2.76v10.466c0 .77-.3 1.46-.592 2.07-.292.61-.77 1.13-1.28 1.554-.51.425-1.16.75-1.87.977-.712.225-1.503.338-2.34.338-1.143 0-2.11-.188-2.887-.566-.777-.38-1.45-.915-2.007-1.605l1.452-1.413c.4.49.898.876 1.502 1.154.604.28 1.244.42 1.922.42.412 0 .806-.057 1.184-.17.378-.113.713-.288 1.006-.528.292-.24.63-.545.794-.916.166-.373.356-.81.356-1.315v-1.315c0 .597-.936 1.06-1.56 1.383-.625.327-1.403.488-2.12.488M131.975 20.99c-.066-1.38-.356-1.735-.866-2.206-.513-.47-1.133-.87-1.863-.87-.36 0-.695-.017-1.007.11-.312.125-.586.262-.826.486-.24.227-.435.802-.588 1.12-.152.32-.24-.02-.27 1.36h5.42zm-2.71 5.646c-.835 0-1.592-.142-2.27-.428-.676-.285-1.254-.674-1.732-1.165-.478-.49-.846-1.062-1.106-1.713-.26-.65-.387-1.334-.387-2.05 0-.745.125-1.445.378-2.102.252-.658.618-1.236 1.095-1.734.478-.498 1.06-.892 1.743-1.185.683-.293 1.45-.44 2.3-.44.85 0 1.61.147 2.28.44.67.292 1.242.684 1.714 1.175.472.49.83 1.062 1.076 1.713.245.65.368 1.328.368 2.03 0 .174-.004.486-.01.646-.008.16-.023.544-.05.544h-8.067c.04 0 .14.63.3.948.16.32.364.52.617.745.252.227.537.362.856.48.32.12.65.162.996.162.53 0 1.033-.138 1.504-.397.47-.26.793-.606.966-1.03l2.29.634c-.385.796-1 1.45-1.842 1.96-.844.512-1.85.766-3.018.766zM70.957 24.384c-2.79 0-5.058-2.27-5.058-5.056 0-2.79 2.268-5.06 5.057-5.06 1.873 0 3.492 1.036 4.365 2.555l2.07-1.11c-1.274-2.256-3.666-3.8-6.435-3.8-4.088 0-7.415 3.326-7.415 7.415 0 4.087 3.327 7.412 7.415 7.412 2.603 0 4.888-1.354 6.21-3.39l-1.983-1.262c-.904 1.38-2.46 2.296-4.227 2.296" fill="#424242"/></g></svg>